<svg width="25" height="25" viewBox="0 0 25 25" fill="none" xmlns="http://www.w3.org/2000/svg">
<path d="M18.4976 7.17785L18.9984 6.39401L18.0684 6.40869C12.8767 6.49059 10.0358 9.52359 8.51847 12.4845C7.76267 13.9594 7.32907 15.4239 7.08406 16.5164C6.96133 17.0637 6.88532 17.5204 6.83983 17.8419C6.83706 17.8615 6.8344 17.8807 6.83184 17.8993H3.29211H2.40876L2.86343 18.6566C3.87843 20.3474 5.31339 21.7469 7.02897 22.7193C8.74454 23.6917 10.6824 24.204 12.6544 24.2063L12.6558 24.2063C14.6272 24.2034 16.5644 23.6909 18.2794 22.7185C18.7524 22.4503 19.2041 22.1496 19.6315 21.8193C17.6877 23.3228 15.2492 24.2175 12.6016 24.2175C6.25035 24.2175 1.10163 19.0688 1.10163 12.7175C1.10163 6.36621 6.25035 1.21748 12.6016 1.21748C18.9529 1.21748 24.1016 6.36621 24.1016 12.7175C24.1016 14.5816 23.6581 16.3421 22.8708 17.8993H22.0148H18.2101C18.1385 17.721 18.0414 17.4658 17.9343 17.1474C17.71 16.4807 17.4433 15.5411 17.2737 14.4516C16.933 12.2624 16.9934 9.53194 18.4976 7.17785ZM22.6646 18.2883C22.0613 19.3758 21.2868 20.3553 20.3775 21.1902C21.1807 20.452 21.8774 19.5996 22.4435 18.6566L22.6646 18.2883Z" fill="black" stroke="black"/>
</svg>
